<?xml version="1.0" encoding="UTF-8"?>
<svg id="mermaid-1782021754893" width="100%" xmlns="http://www.w3.org/2000/svg" xmlns:xlink="http://www.w3.org/1999/xlink" style="max-width: 1144.5078125px;" viewBox="-8 -8 1144.5078125 520" role="graphics-document document" aria-roledescription="flowchart-v2"><style>#mermaid-1782021754893{font-family:"trebuchet ms",verdana,arial,sans-serif;font-size:16px;fill:#333;}#mermaid-1782021754893 .error-icon{fill:#552222;}#mermaid-1782021754893 .error-text{fill:#552222;stroke:#552222;}#mermaid-1782021754893 .edge-thickness-normal{stroke-width:2px;}#mermaid-1782021754893 .edge-thickness-thick{stroke-width:3.5px;}#mermaid-1782021754893 .edge-pattern-solid{stroke-dasharray:0;}#mermaid-1782021754893 .edge-pattern-dashed{stroke-dasharray:3;}#mermaid-1782021754893 .edge-pattern-dotted{stroke-dasharray:2;}#mermaid-1782021754893 .marker{fill:#333333;stroke:#333333;}#mermaid-1782021754893 .marker.cross{stroke:#333333;}#mermaid-1782021754893 svg{font-family:"trebuchet ms",verdana,arial,sans-serif;font-size:16px;}#mermaid-1782021754893 .label{font-family:"trebuchet ms",verdana,arial,sans-serif;color:#333;}#mermaid-1782021754893 .cluster-label text{fill:#333;}#mermaid-1782021754893 .cluster-label span,#mermaid-1782021754893 p{color:#333;}#mermaid-1782021754893 .label text,#mermaid-1782021754893 span,#mermaid-1782021754893 p{fill:#333;color:#333;}#mermaid-1782021754893 .node rect,#mermaid-1782021754893 .node circle,#mermaid-1782021754893 .node ellipse,#mermaid-1782021754893 .node polygon,#mermaid-1782021754893 .node path{fill:#ECECFF;stroke:#9370DB;stroke-width:1px;}#mermaid-1782021754893 .flowchart-label text{text-anchor:middle;}#mermaid-1782021754893 .node .katex path{fill:#000;stroke:#000;stroke-width:1px;}#mermaid-1782021754893 .node .label{text-align:center;}#mermaid-1782021754893 .node.clickable{cursor:pointer;}#mermaid-1782021754893 .arrowheadPath{fill:#333333;}#mermaid-1782021754893 .edgePath .path{stroke:#333333;stroke-width:2.0px;}#mermaid-1782021754893 .flowchart-link{stroke:#333333;fill:none;}#mermaid-1782021754893 .edgeLabel{background-color:#e8e8e8;text-align:center;}#mermaid-1782021754893 .edgeLabel rect{opacity:0.5;background-color:#e8e8e8;fill:#e8e8e8;}#mermaid-1782021754893 .labelBkg{background-color:rgba(232, 232, 232, 0.5);}#mermaid-1782021754893 .cluster rect{fill:#ffffde;stroke:#aaaa33;stroke-width:1px;}#mermaid-1782021754893 .cluster text{fill:#333;}#mermaid-1782021754893 .cluster span,#mermaid-1782021754893 p{color:#333;}#mermaid-1782021754893 div.mermaidTooltip{position:absolute;text-align:center;max-width:200px;padding:2px;font-family:"trebuchet ms",verdana,arial,sans-serif;font-size:12px;background:hsl(80, 100%, 96.2745098039%);border:1px solid #aaaa33;border-radius:2px;pointer-events:none;z-index:100;}#mermaid-1782021754893 .flowchartTitleText{text-anchor:middle;font-size:18px;fill:#333;}#mermaid-1782021754893 :root{--mermaid-font-family:"trebuchet ms",verdana,arial,sans-serif;}</style><g><marker id="mermaid-1782021754893_flowchart-pointEnd" class="marker flowchart" viewBox="0 0 10 10" refX="6" refY="5" markerUnits="userSpaceOnUse" markerWidth="12" markerHeight="12" orient="auto"><path d="M 0 0 L 10 5 L 0 10 z" class="arrowMarkerPath" style="stroke-width: 1; stroke-dasharray: 1, 0;"></path></marker><marker id="mermaid-1782021754893_flowchart-pointStart" class="marker flowchart" viewBox="0 0 10 10" refX="4.5" refY="5" markerUnits="userSpaceOnUse" markerWidth="12" markerHeight="12" orient="auto"><path d="M 0 5 L 10 10 L 10 0 z" class="arrowMarkerPath" style="stroke-width: 1; stroke-dasharray: 1, 0;"></path></marker><marker id="mermaid-1782021754893_flowchart-circleEnd" class="marker flowchart" viewBox="0 0 10 10" refX="11" refY="5" markerUnits="userSpaceOnUse" markerWidth="11" markerHeight="11" orient="auto"><circle cx="5" cy="5" r="5" class="arrowMarkerPath" style="stroke-width: 1; stroke-dasharray: 1, 0;"></circle></marker><marker id="mermaid-1782021754893_flowchart-circleStart" class="marker flowchart" viewBox="0 0 10 10" refX="-1" refY="5" markerUnits="userSpaceOnUse" markerWidth="11" markerHeight="11" orient="auto"><circle cx="5" cy="5" r="5" class="arrowMarkerPath" style="stroke-width: 1; stroke-dasharray: 1, 0;"></circle></marker><marker id="mermaid-1782021754893_flowchart-crossEnd" class="marker cross flowchart" viewBox="0 0 11 11" refX="12" refY="5.2" markerUnits="userSpaceOnUse" markerWidth="11" markerHeight="11" orient="auto"><path d="M 1,1 l 9,9 M 10,1 l -9,9" class="arrowMarkerPath" style="stroke-width: 2; stroke-dasharray: 1, 0;"></path></marker><marker id="mermaid-1782021754893_flowchart-crossStart" class="marker cross flowchart" viewBox="0 0 11 11" refX="-1" refY="5.2" markerUnits="userSpaceOnUse" markerWidth="11" markerHeight="11" orient="auto"><path d="M 1,1 l 9,9 M 10,1 l -9,9" class="arrowMarkerPath" style="stroke-width: 2; stroke-dasharray: 1, 0;"></path></marker><g class="root"><g class="clusters"><g class="cluster default flowchart-label" id="output"><rect style="" rx="0" ry="0" x="512.875" y="403" width="247.71875" height="101"></rect><g class="cluster-label" transform="translate(612.71875, 403)"><foreignObject width="48.03125" height="18"><div xmlns="http://www.w3.org/1999/xhtml" style="display: inline-block; white-space: nowrap;"><span class="nodeLabel">Output</span></div></foreignObject></g></g><g class="cluster default flowchart-label" id="job"><rect style="" rx="0" ry="0" x="29.84375" y="151" width="1098.6640625" height="202"></rect><g class="cluster-label" transform="translate(540.48828125, 151)"><foreignObject width="77.375" height="18"><div xmlns="http://www.w3.org/1999/xhtml" style="display: inline-block; white-space: nowrap;"><span class="nodeLabel">Linker jobs</span></div></foreignObject></g></g><g class="cluster default flowchart-label" id="inputs"><rect style="" rx="0" ry="0" x="0" y="0" width="1014.5625" height="101"></rect><g class="cluster-label" transform="translate(461.921875, 0)"><foreignObject width="90.71875" height="18"><div xmlns="http://www.w3.org/1999/xhtml" style="display: inline-block; white-space: nowrap;"><span class="nodeLabel">Linker inputs</span></div></foreignObject></g></g></g><g class="edgePaths"><path d="M79.844,67L79.844,72.667C79.844,78.333,79.844,89.667,79.844,99.5C79.844,109.333,79.844,117.667,79.844,126C79.844,134.333,79.844,142.667,97.917,152.247C115.989,161.826,152.135,172.653,170.208,178.066L188.281,183.479" id="L-O1-J1-0" class=" edge-thickness-normal edge-pattern-solid flowchart-link LS-O1 LE-J1" style="fill:none;" marker-end="url(#mermaid-1782021754893_flowchart-pointEnd)"></path><path d="M248.445,67L248.445,72.667C248.445,78.333,248.445,89.667,248.445,99.5C248.445,109.333,248.445,117.667,248.445,126C248.445,134.333,248.445,142.667,248.445,151.617C248.445,160.567,248.445,170.133,248.445,174.917L248.445,179.7" id="L-O2-J1-0" class=" edge-thickness-normal edge-pattern-solid flowchart-link LS-O2 LE-J1" style="fill:none;" marker-end="url(#mermaid-1782021754893_flowchart-pointEnd)"></path><path d="M557.031,68.459L528.876,73.882C500.721,79.306,444.411,90.153,416.257,99.743C388.102,109.333,388.102,117.667,388.102,126C388.102,134.333,388.102,142.667,373.261,152.2C358.421,161.733,328.74,172.465,313.9,177.831L299.06,183.198" id="L-SCRIPT-J1-0" class=" edge-thickness-normal edge-pattern-solid flowchart-link LS-SCRIPT LE-J1" style="fill:none;" marker-end="url(#mermaid-1782021754893_flowchart-pointEnd)"></path><path d="M588.401,76L578.294,80.167C568.187,84.333,547.972,92.667,537.865,101C527.758,109.333,527.758,117.667,527.758,126C527.758,134.333,527.758,142.667,527.758,150.117C527.758,157.567,527.758,164.133,527.758,167.417L527.758,170.7" id="L-SCRIPT-J2-0" class=" edge-thickness-normal edge-pattern-solid flowchart-link LS-SCRIPT LE-J2" style="fill:none;" marker-end="url(#mermaid-1782021754893_flowchart-pointEnd)"></path><path d="M698.457,76L706.333,80.167C714.208,84.333,729.96,92.667,737.835,101C745.711,109.333,745.711,117.667,745.711,126C745.711,134.333,745.711,142.667,745.711,151.617C745.711,160.567,745.711,170.133,745.711,174.917L745.711,179.7" id="L-SCRIPT-J3-0" class=" edge-thickness-normal edge-pattern-solid flowchart-link LS-SCRIPT LE-J3" style="fill:none;" marker-end="url(#mermaid-1782021754893_flowchart-pointEnd)"></path><path d="M743.484,64.733L783.077,70.777C822.669,76.822,901.854,88.911,941.447,99.122C981.039,109.333,981.039,117.667,981.039,126C981.039,134.333,981.039,142.667,981.039,150.117C981.039,157.567,981.039,164.133,981.039,167.417L981.039,170.7" id="L-SCRIPT-J4-0" class=" edge-thickness-normal edge-pattern-solid flowchart-link LS-SCRIPT LE-J4" style="fill:none;" marker-end="url(#mermaid-1782021754893_flowchart-pointEnd)"></path><path d="M248.445,218L248.445,223.667C248.445,229.333,248.445,240.667,297.916,252.767C347.386,264.868,446.327,277.736,495.797,284.17L545.268,290.604" id="L-J1-J5-0" class=" edge-thickness-normal edge-pattern-solid flowchart-link LS-J1 LE-J5" style="fill:none;" marker-end="url(#mermaid-1782021754893_flowchart-pointEnd)"></path><path d="M527.758,227L527.758,231.167C527.758,235.333,527.758,243.667,535.948,251.629C544.138,259.591,560.518,267.181,568.708,270.976L576.898,274.772" id="L-J2-J5-0" class=" edge-thickness-normal edge-pattern-solid flowchart-link LS-J2 LE-J5" style="fill:none;" marker-end="url(#mermaid-1782021754893_flowchart-pointEnd)"></path><path d="M745.711,218L745.711,223.667C745.711,229.333,745.711,240.667,737.521,250.129C729.331,259.591,712.951,267.181,704.761,270.976L696.571,274.772" id="L-J3-J5-0" class=" edge-thickness-normal edge-pattern-solid flowchart-link LS-J3 LE-J5" style="fill:none;" marker-end="url(#mermaid-1782021754893_flowchart-pointEnd)"></path><path d="M981.039,227L981.039,231.167C981.039,235.333,981.039,243.667,938.897,254.014C896.756,264.362,812.472,276.724,770.331,282.905L728.189,289.086" id="L-J4-J5-0" class=" edge-thickness-normal edge-pattern-solid flowchart-link LS-J4 LE-J5" style="fill:none;" marker-end="url(#mermaid-1782021754893_flowchart-pointEnd)"></path><path d="M636.734,328L636.734,332.167C636.734,336.333,636.734,344.667,636.734,353C636.734,361.333,636.734,369.667,636.734,378C636.734,386.333,636.734,394.667,636.734,402.117C636.734,409.567,636.734,416.133,636.734,419.417L636.734,422.7" id="L-J5-ELF-0" class=" edge-thickness-normal edge-pattern-solid flowchart-link LS-J5 LE-ELF" style="fill:none;" marker-end="url(#mermaid-1782021754893_flowchart-pointEnd)"></path></g><g class="edgeLabels"><g class="edgeLabel"><g class="label" transform="translate(0, 0)"><foreignObject width="0" height="0"><div xmlns="http://www.w3.org/1999/xhtml" style="display: inline-block; white-space: nowrap;"><span class="edgeLabel"></span></div></foreignObject></g></g><g class="edgeLabel"><g class="label" transform="translate(0, 0)"><foreignObject width="0" height="0"><div xmlns="http://www.w3.org/1999/xhtml" style="display: inline-block; white-space: nowrap;"><span class="edgeLabel"></span></div></foreignObject></g></g><g class="edgeLabel"><g class="label" transform="translate(0, 0)"><foreignObject width="0" height="0"><div xmlns="http://www.w3.org/1999/xhtml" style="display: inline-block; white-space: nowrap;"><span class="edgeLabel"></span></div></foreignObject></g></g><g class="edgeLabel"><g class="label" transform="translate(0, 0)"><foreignObject width="0" height="0"><div xmlns="http://www.w3.org/1999/xhtml" style="display: inline-block; white-space: nowrap;"><span class="edgeLabel"></span></div></foreignObject></g></g><g class="edgeLabel"><g class="label" transform="translate(0, 0)"><foreignObject width="0" height="0"><div xmlns="http://www.w3.org/1999/xhtml" style="display: inline-block; white-space: nowrap;"><span class="edgeLabel"></span></div></foreignObject></g></g><g class="edgeLabel"><g class="label" transform="translate(0, 0)"><foreignObject width="0" height="0"><div xmlns="http://www.w3.org/1999/xhtml" style="display: inline-block; white-space: nowrap;"><span class="edgeLabel"></span></div></foreignObject></g></g><g class="edgeLabel"><g class="label" transform="translate(0, 0)"><foreignObject width="0" height="0"><div xmlns="http://www.w3.org/1999/xhtml" style="display: inline-block; white-space: nowrap;"><span class="edgeLabel"></span></div></foreignObject></g></g><g class="edgeLabel"><g class="label" transform="translate(0, 0)"><foreignObject width="0" height="0"><div xmlns="http://www.w3.org/1999/xhtml" style="display: inline-block; white-space: nowrap;"><span class="edgeLabel"></span></div></foreignObject></g></g><g class="edgeLabel"><g class="label" transform="translate(0, 0)"><foreignObject width="0" height="0"><div xmlns="http://www.w3.org/1999/xhtml" style="display: inline-block; white-space: nowrap;"><span class="edgeLabel"></span></div></foreignObject></g></g><g class="edgeLabel"><g class="label" transform="translate(0, 0)"><foreignObject width="0" height="0"><div xmlns="http://www.w3.org/1999/xhtml" style="display: inline-block; white-space: nowrap;"><span class="edgeLabel"></span></div></foreignObject></g></g><g class="edgeLabel"><g class="label" transform="translate(0, 0)"><foreignObject width="0" height="0"><div xmlns="http://www.w3.org/1999/xhtml" style="display: inline-block; white-space: nowrap;"><span class="edgeLabel"></span></div></foreignObject></g></g></g><g class="nodes"><g class="node default default flowchart-label" id="flowchart-ELF-8" data-node="true" data-id="ELF" transform="translate(636.734375, 453.5)"><rect class="basic label-container" style="" rx="0" ry="0" x="-88.859375" y="-25.5" width="177.71875" height="51"></rect><g class="label" style="" transform="translate(-81.359375, -18)"><rect></rect><foreignObject width="162.71875" height="36"><div xmlns="http://www.w3.org/1999/xhtml" style="display: inline-block; white-space: nowrap;"><span class="nodeLabel">firmware.elf<br>complete memory map</span></div></foreignObject></g></g><g class="node default default flowchart-label" id="flowchart-J1-3" data-node="true" data-id="J1" transform="translate(248.4453125, 201.5)"><rect class="basic label-container" style="" rx="0" ry="0" x="-134.21875" y="-16.5" width="268.4375" height="33"></rect><g class="label" style="" transform="translate(-126.71875, -9)"><rect></rect><foreignObject width="253.4375" height="18"><div xmlns="http://www.w3.org/1999/xhtml" style="display: inline-block; white-space: nowrap;"><span class="nodeLabel">Merge .text .vectors .rodata → flash</span></div></foreignObject></g></g><g class="node default default flowchart-label" id="flowchart-J2-4" data-node="true" data-id="J2" transform="translate(527.7578125, 201.5)"><rect class="basic label-container" style="" rx="0" ry="0" x="-95.09375" y="-25.5" width="190.1875" height="51"></rect><g class="label" style="" transform="translate(-87.59375, -18)"><rect></rect><foreignObject width="175.1875" height="36"><div xmlns="http://www.w3.org/1999/xhtml" style="display: inline-block; white-space: nowrap;"><span class="nodeLabel">Place .data VMA in RAM<br>LMA in flash</span></div></foreignObject></g></g><g class="node default default flowchart-label" id="flowchart-J3-5" data-node="true" data-id="J3" transform="translate(745.7109375, 201.5)"><rect class="basic label-container" style="" rx="0" ry="0" x="-72.859375" y="-16.5" width="145.71875" height="33"></rect><g class="label" style="" transform="translate(-65.359375, -9)"><rect></rect><foreignObject width="130.71875" height="18"><div xmlns="http://www.w3.org/1999/xhtml" style="display: inline-block; white-space: nowrap;"><span class="nodeLabel">Place .bss in RAM</span></div></foreignObject></g></g><g class="node default default flowchart-label" id="flowchart-J4-6" data-node="true" data-id="J4" transform="translate(981.0390625, 201.5)"><rect class="basic label-container" style="" rx="0" ry="0" x="-112.46875" y="-25.5" width="224.9375" height="51"></rect><g class="label" style="" transform="translate(-104.96875, -18)"><rect></rect><foreignObject width="209.9375" height="36"><div xmlns="http://www.w3.org/1999/xhtml" style="display: inline-block; white-space: nowrap;"><span class="nodeLabel">Define symbols<br>_stack _etext _data_loadaddr</span></div></foreignObject></g></g><g class="node default default flowchart-label" id="flowchart-J5-7" data-node="true" data-id="J5" transform="translate(636.734375, 302.5)"><rect class="basic label-container" style="" rx="0" ry="0" x="-86.2109375" y="-25.5" width="172.421875" height="51"></rect><g class="label" style="" transform="translate(-78.7109375, -18)"><rect></rect><foreignObject width="157.421875" height="36"><div xmlns="http://www.w3.org/1999/xhtml" style="display: inline-block; white-space: nowrap;"><span class="nodeLabel">Resolve symbols<br>reset_handler → main</span></div></foreignObject></g></g><g class="node default default flowchart-label" id="flowchart-O1-0" data-node="true" data-id="O1" transform="translate(79.84375, 50.5)"><rect class="basic label-container" style="" rx="0" ry="0" x="-44.84375" y="-16.5" width="89.6875" height="33"></rect><g class="label" style="" transform="translate(-37.34375, -9)"><rect></rect><foreignObject width="74.6875" height="18"><div xmlns="http://www.w3.org/1999/xhtml" style="display: inline-block; white-space: nowrap;"><span class="nodeLabel">firmware.o</span></div></foreignObject></g></g><g class="node default default flowchart-label" id="flowchart-O2-1" data-node="true" data-id="O2" transform="translate(248.4453125, 50.5)"><rect class="basic label-container" style="" rx="0" ry="0" x="-73.7578125" y="-16.5" width="147.515625" height="33"></rect><g class="label" style="" transform="translate(-66.2578125, -9)"><rect></rect><foreignObject width="132.515625" height="18"><div xmlns="http://www.w3.org/1999/xhtml" style="display: inline-block; white-space: nowrap;"><span class="nodeLabel">libopencm3 .o files</span></div></foreignObject></g></g><g class="node default default flowchart-label" id="flowchart-SCRIPT-2" data-node="true" data-id="SCRIPT" transform="translate(650.2578125, 50.5)"><rect class="basic label-container" style="" rx="0" ry="0" x="-93.2265625" y="-25.5" width="186.453125" height="51"></rect><g class="label" style="" transform="translate(-85.7265625, -18)"><rect></rect><foreignObject width="171.453125" height="36"><div xmlns="http://www.w3.org/1999/xhtml" style="display: inline-block; white-space: nowrap;"><span class="nodeLabel">app/app.ld<br>MEMORY + SECTIONS</span></div></foreignObject></g></g></g></g></g></svg>