<?xml version="1.0" encoding="UTF-8"?>
<svg id="mermaid-1782021757705" width="100%" xmlns="http://www.w3.org/2000/svg" xmlns:xlink="http://www.w3.org/1999/xlink" style="max-width: 1103.609375px;" viewBox="-8 -8 1103.609375 552" role="graphics-document document" aria-roledescription="flowchart-v2"><style>#mermaid-1782021757705{font-family:"trebuchet ms",verdana,arial,sans-serif;font-size:16px;fill:#333;}#mermaid-1782021757705 .error-icon{fill:#552222;}#mermaid-1782021757705 .error-text{fill:#552222;stroke:#552222;}#mermaid-1782021757705 .edge-thickness-normal{stroke-width:2px;}#mermaid-1782021757705 .edge-thickness-thick{stroke-width:3.5px;}#mermaid-1782021757705 .edge-pattern-solid{stroke-dasharray:0;}#mermaid-1782021757705 .edge-pattern-dashed{stroke-dasharray:3;}#mermaid-1782021757705 .edge-pattern-dotted{stroke-dasharray:2;}#mermaid-1782021757705 .marker{fill:#333333;stroke:#333333;}#mermaid-1782021757705 .marker.cross{stroke:#333333;}#mermaid-1782021757705 svg{font-family:"trebuchet ms",verdana,arial,sans-serif;font-size:16px;}#mermaid-1782021757705 .label{font-family:"trebuchet ms",verdana,arial,sans-serif;color:#333;}#mermaid-1782021757705 .cluster-label text{fill:#333;}#mermaid-1782021757705 .cluster-label span,#mermaid-1782021757705 p{color:#333;}#mermaid-1782021757705 .label text,#mermaid-1782021757705 span,#mermaid-1782021757705 p{fill:#333;color:#333;}#mermaid-1782021757705 .node rect,#mermaid-1782021757705 .node circle,#mermaid-1782021757705 .node ellipse,#mermaid-1782021757705 .node polygon,#mermaid-1782021757705 .node path{fill:#ECECFF;stroke:#9370DB;stroke-width:1px;}#mermaid-1782021757705 .flowchart-label text{text-anchor:middle;}#mermaid-1782021757705 .node .katex path{fill:#000;stroke:#000;stroke-width:1px;}#mermaid-1782021757705 .node .label{text-align:center;}#mermaid-1782021757705 .node.clickable{cursor:pointer;}#mermaid-1782021757705 .arrowheadPath{fill:#333333;}#mermaid-1782021757705 .edgePath .path{stroke:#333333;stroke-width:2.0px;}#mermaid-1782021757705 .flowchart-link{stroke:#333333;fill:none;}#mermaid-1782021757705 .edgeLabel{background-color:#e8e8e8;text-align:center;}#mermaid-1782021757705 .edgeLabel rect{opacity:0.5;background-color:#e8e8e8;fill:#e8e8e8;}#mermaid-1782021757705 .labelBkg{background-color:rgba(232, 232, 232, 0.5);}#mermaid-1782021757705 .cluster rect{fill:#ffffde;stroke:#aaaa33;stroke-width:1px;}#mermaid-1782021757705 .cluster text{fill:#333;}#mermaid-1782021757705 .cluster span,#mermaid-1782021757705 p{color:#333;}#mermaid-1782021757705 div.mermaidTooltip{position:absolute;text-align:center;max-width:200px;padding:2px;font-family:"trebuchet ms",verdana,arial,sans-serif;font-size:12px;background:hsl(80, 100%, 96.2745098039%);border:1px solid #aaaa33;border-radius:2px;pointer-events:none;z-index:100;}#mermaid-1782021757705 .flowchartTitleText{text-anchor:middle;font-size:18px;fill:#333;}#mermaid-1782021757705 :root{--mermaid-font-family:"trebuchet ms",verdana,arial,sans-serif;}</style><g><marker id="mermaid-1782021757705_flowchart-pointEnd" class="marker flowchart" viewBox="0 0 10 10" refX="6" refY="5" markerUnits="userSpaceOnUse" markerWidth="12" markerHeight="12" orient="auto"><path d="M 0 0 L 10 5 L 0 10 z" class="arrowMarkerPath" style="stroke-width: 1; stroke-dasharray: 1, 0;"></path></marker><marker id="mermaid-1782021757705_flowchart-pointStart" class="marker flowchart" viewBox="0 0 10 10" refX="4.5" refY="5" markerUnits="userSpaceOnUse" markerWidth="12" markerHeight="12" orient="auto"><path d="M 0 5 L 10 10 L 10 0 z" class="arrowMarkerPath" style="stroke-width: 1; stroke-dasharray: 1, 0;"></path></marker><marker id="mermaid-1782021757705_flowchart-circleEnd" class="marker flowchart" viewBox="0 0 10 10" refX="11" refY="5" markerUnits="userSpaceOnUse" markerWidth="11" markerHeight="11" orient="auto"><circle cx="5" cy="5" r="5" class="arrowMarkerPath" style="stroke-width: 1; stroke-dasharray: 1, 0;"></circle></marker><marker id="mermaid-1782021757705_flowchart-circleStart" class="marker flowchart" viewBox="0 0 10 10" refX="-1" refY="5" markerUnits="userSpaceOnUse" markerWidth="11" markerHeight="11" orient="auto"><circle cx="5" cy="5" r="5" class="arrowMarkerPath" style="stroke-width: 1; stroke-dasharray: 1, 0;"></circle></marker><marker id="mermaid-1782021757705_flowchart-crossEnd" class="marker cross flowchart" viewBox="0 0 11 11" refX="12" refY="5.2" markerUnits="userSpaceOnUse" markerWidth="11" markerHeight="11" orient="auto"><path d="M 1,1 l 9,9 M 10,1 l -9,9" class="arrowMarkerPath" style="stroke-width: 2; stroke-dasharray: 1, 0;"></path></marker><marker id="mermaid-1782021757705_flowchart-crossStart" class="marker cross flowchart" viewBox="0 0 11 11" refX="-1" refY="5.2" markerUnits="userSpaceOnUse" markerWidth="11" markerHeight="11" orient="auto"><path d="M 1,1 l 9,9 M 10,1 l -9,9" class="arrowMarkerPath" style="stroke-width: 2; stroke-dasharray: 1, 0;"></path></marker><g class="root"><g class="clusters"><g class="cluster default flowchart-label" id="out"><rect style="" rx="0" ry="0" x="213.90234375" y="435" width="649.828125" height="101"></rect><g class="cluster-label" transform="translate(441.44140625, 435)"><foreignObject width="194.75" height="18"><div xmlns="http://www.w3.org/1999/xhtml" style="display: inline-block; white-space: nowrap;"><span class="nodeLabel">firmware.elf output sections</span></div></foreignObject></g></g><g class="cluster default flowchart-label" id="ld"><rect style="" rx="0" ry="0" x="73.9375" y="284" width="914.84375" height="101"></rect><g class="cluster-label" transform="translate(435.3046875, 284)"><foreignObject width="192.109375" height="18"><div xmlns="http://www.w3.org/1999/xhtml" style="display: inline-block; white-space: nowrap;"><span class="nodeLabel">Linker merges using app.ld</span></div></foreignObject></g></g><g class="cluster default flowchart-label" id="objects"><rect style="" rx="0" ry="0" x="0" y="151" width="1087.609375" height="83"></rect><g class="cluster-label" transform="translate(416.1796875, 151)"><foreignObject width="255.25" height="18"><div xmlns="http://www.w3.org/1999/xhtml" style="display: inline-block; white-space: nowrap;"><span class="nodeLabel">Object files .o each contain sections</span></div></foreignObject></g></g><g class="cluster default flowchart-label" id="sources"><rect style="" rx="0" ry="0" x="54.3984375" y="0" width="981.49609375" height="101"></rect><g class="cluster-label" transform="translate(510.904296875, 0)"><foreignObject width="68.484375" height="18"><div xmlns="http://www.w3.org/1999/xhtml" style="display: inline-block; white-space: nowrap;"><span class="nodeLabel">Input files</span></div></foreignObject></g></g></g><g class="edgePaths"><path d="M168.744,67L180.749,72.667C192.754,78.333,216.764,89.667,228.769,99.5C240.773,109.333,240.773,117.667,240.773,126C240.773,134.333,240.773,142.667,248.74,150.621C256.706,158.575,272.638,166.15,280.604,169.937L288.571,173.724" id="L-FC-OT-0" class=" edge-thickness-normal edge-pattern-solid flowchart-link LS-FC LE-OT" style="fill:none;" marker-end="url(#mermaid-1782021757705_flowchart-pointEnd)"></path><path d="M127.354,67L125.144,72.667C122.934,78.333,118.514,89.667,116.304,99.5C114.094,109.333,114.094,117.667,114.094,126C114.094,134.333,114.094,142.667,114.094,150.117C114.094,157.567,114.094,164.133,114.094,167.417L114.094,170.7" id="L-FC-OR-0" class=" edge-thickness-normal edge-pattern-solid flowchart-link LS-FC LE-OR" style="fill:none;" marker-end="url(#mermaid-1782021757705_flowchart-pointEnd)"></path><path d="M933.93,76L938.453,80.167C942.977,84.333,952.023,92.667,956.547,101C961.07,109.333,961.07,117.667,961.07,126C961.07,134.333,961.07,142.667,961.07,150.117C961.07,157.567,961.07,164.133,961.07,167.417L961.07,170.7" id="L-LIB-OV-0" class=" edge-thickness-normal edge-pattern-solid flowchart-link LS-LIB LE-OV" style="fill:none;" marker-end="url(#mermaid-1782021757705_flowchart-pointEnd)"></path><path d="M811.598,65.602L774.622,71.501C737.646,77.401,663.694,89.201,626.718,99.267C589.742,109.333,589.742,117.667,589.742,126C589.742,134.333,589.742,142.667,561.147,151.368C532.552,160.07,475.362,169.14,446.767,173.675L418.172,178.209" id="L-LIB-OT-0" class=" edge-thickness-normal edge-pattern-solid flowchart-link LS-LIB LE-OT" style="fill:none;" marker-end="url(#mermaid-1782021757705_flowchart-pointEnd)"></path><path d="M328.063,209L328.063,213.167C328.063,217.333,328.063,225.667,328.063,234C328.063,242.333,328.063,250.667,328.063,259C328.063,267.333,328.063,275.667,350.498,285.218C372.933,294.769,417.804,305.538,440.239,310.923L462.674,316.307" id="L-OT-MERGE-0" class=" edge-thickness-normal edge-pattern-solid flowchart-link LS-OT LE-MERGE" style="fill:none;" marker-end="url(#mermaid-1782021757705_flowchart-pointEnd)"></path><path d="M961.07,209L961.07,213.167C961.07,217.333,961.07,225.667,961.07,234C961.07,242.333,961.07,250.667,961.07,259C961.07,267.333,961.07,275.667,903.29,286.738C845.509,297.81,729.948,311.619,672.168,318.524L614.388,325.429" id="L-OV-MERGE-0" class=" edge-thickness-normal edge-pattern-solid flowchart-link LS-OV LE-MERGE" style="fill:none;" marker-end="url(#mermaid-1782021757705_flowchart-pointEnd)"></path><path d="M114.094,209L114.094,213.167C114.094,217.333,114.094,225.667,114.094,234C114.094,242.333,114.094,250.667,114.094,259C114.094,267.333,114.094,275.667,172.172,286.744C230.251,297.822,346.408,311.645,404.487,318.556L462.565,325.467" id="L-OR-MERGE-0" class=" edge-thickness-normal edge-pattern-solid flowchart-link LS-OR LE-MERGE" style="fill:none;" marker-end="url(#mermaid-1782021757705_flowchart-pointEnd)"></path><path d="M538.477,209L538.477,213.167C538.477,217.333,538.477,225.667,538.477,234C538.477,242.333,538.477,250.667,538.477,259C538.477,267.333,538.477,275.667,538.477,283.117C538.477,290.567,538.477,297.133,538.477,300.417L538.477,303.7" id="L-OD-MERGE-0" class=" edge-thickness-normal edge-pattern-solid flowchart-link LS-OD LE-MERGE" style="fill:none;" marker-end="url(#mermaid-1782021757705_flowchart-pointEnd)"></path><path d="M741.773,209L741.773,213.167C741.773,217.333,741.773,225.667,741.773,234C741.773,242.333,741.773,250.667,741.773,259C741.773,267.333,741.773,275.667,720.523,285.112C699.272,294.558,656.77,305.115,635.519,310.394L614.269,315.673" id="L-OB-MERGE-0" class=" edge-thickness-normal edge-pattern-solid flowchart-link LS-OB LE-MERGE" style="fill:none;" marker-end="url(#mermaid-1782021757705_flowchart-pointEnd)"></path><path d="M609.125,351.407L632.521,357.005C655.918,362.604,702.711,373.802,726.107,383.568C749.504,393.333,749.504,401.667,749.504,410C749.504,418.333,749.504,426.667,749.504,434.117C749.504,441.567,749.504,448.133,749.504,451.417L749.504,454.7" id="L-MERGE-ET-0" class=" edge-thickness-normal edge-pattern-solid flowchart-link LS-MERGE LE-ET" style="fill:none;" marker-end="url(#mermaid-1782021757705_flowchart-pointEnd)"></path><path d="M538.423,360L538.415,364.167C538.406,368.333,538.388,376.667,538.38,385C538.371,393.333,538.371,401.667,538.371,410C538.371,418.333,538.371,426.667,538.371,434.117C538.371,441.567,538.371,448.133,538.371,451.417L538.371,454.7" id="L-MERGE-ED-0" class=" edge-thickness-normal edge-pattern-solid flowchart-link LS-MERGE LE-ED" style="fill:none;" marker-end="url(#mermaid-1782021757705_flowchart-pointEnd)"></path><path d="M467.828,351.425L444.471,357.021C421.113,362.617,374.398,373.808,351.041,383.571C327.684,393.333,327.684,401.667,327.684,410C327.684,418.333,327.684,426.667,327.684,434.117C327.684,441.567,327.684,448.133,327.684,451.417L327.684,454.7" id="L-MERGE-EB-0" class=" edge-thickness-normal edge-pattern-solid flowchart-link LS-MERGE LE-EB" style="fill:none;" marker-end="url(#mermaid-1782021757705_flowchart-pointEnd)"></path></g><g class="edgeLabels"><g class="edgeLabel"><g class="label" transform="translate(0, 0)"><foreignObject width="0" height="0"><div xmlns="http://www.w3.org/1999/xhtml" style="display: inline-block; white-space: nowrap;"><span class="edgeLabel"></span></div></foreignObject></g></g><g class="edgeLabel"><g class="label" transform="translate(0, 0)"><foreignObject width="0" height="0"><div xmlns="http://www.w3.org/1999/xhtml" style="display: inline-block; white-space: nowrap;"><span class="edgeLabel"></span></div></foreignObject></g></g><g class="edgeLabel"><g class="label" transform="translate(0, 0)"><foreignObject width="0" height="0"><div xmlns="http://www.w3.org/1999/xhtml" style="display: inline-block; white-space: nowrap;"><span class="edgeLabel"></span></div></foreignObject></g></g><g class="edgeLabel"><g class="label" transform="translate(0, 0)"><foreignObject width="0" height="0"><div xmlns="http://www.w3.org/1999/xhtml" style="display: inline-block; white-space: nowrap;"><span class="edgeLabel"></span></div></foreignObject></g></g><g class="edgeLabel"><g class="label" transform="translate(0, 0)"><foreignObject width="0" height="0"><div xmlns="http://www.w3.org/1999/xhtml" style="display: inline-block; white-space: nowrap;"><span class="edgeLabel"></span></div></foreignObject></g></g><g class="edgeLabel"><g class="label" transform="translate(0, 0)"><foreignObject width="0" height="0"><div xmlns="http://www.w3.org/1999/xhtml" style="display: inline-block; white-space: nowrap;"><span class="edgeLabel"></span></div></foreignObject></g></g><g class="edgeLabel"><g class="label" transform="translate(0, 0)"><foreignObject width="0" height="0"><div xmlns="http://www.w3.org/1999/xhtml" style="display: inline-block; white-space: nowrap;"><span class="edgeLabel"></span></div></foreignObject></g></g><g class="edgeLabel"><g class="label" transform="translate(0, 0)"><foreignObject width="0" height="0"><div xmlns="http://www.w3.org/1999/xhtml" style="display: inline-block; white-space: nowrap;"><span class="edgeLabel"></span></div></foreignObject></g></g><g class="edgeLabel"><g class="label" transform="translate(0, 0)"><foreignObject width="0" height="0"><div xmlns="http://www.w3.org/1999/xhtml" style="display: inline-block; white-space: nowrap;"><span class="edgeLabel"></span></div></foreignObject></g></g><g class="edgeLabel"><g class="label" transform="translate(0, 0)"><foreignObject width="0" height="0"><div xmlns="http://www.w3.org/1999/xhtml" style="display: inline-block; white-space: nowrap;"><span class="edgeLabel"></span></div></foreignObject></g></g><g class="edgeLabel"><g class="label" transform="translate(0, 0)"><foreignObject width="0" height="0"><div xmlns="http://www.w3.org/1999/xhtml" style="display: inline-block; white-space: nowrap;"><span class="edgeLabel"></span></div></foreignObject></g></g><g class="edgeLabel"><g class="label" transform="translate(0, 0)"><foreignObject width="0" height="0"><div xmlns="http://www.w3.org/1999/xhtml" style="display: inline-block; white-space: nowrap;"><span class="edgeLabel"></span></div></foreignObject></g></g></g><g class="nodes"><g class="node default default flowchart-label" id="flowchart-ET-8" data-node="true" data-id="ET" transform="translate(749.50390625, 485.5)"><rect class="basic label-container" style="" rx="0" ry="0" x="-79.2265625" y="-25.5" width="158.453125" height="51"></rect><g class="label" style="" transform="translate(-71.7265625, -18)"><rect></rect><foreignObject width="143.453125" height="36"><div xmlns="http://www.w3.org/1999/xhtml" style="display: inline-block; white-space: nowrap;"><span class="nodeLabel">.text @ 0x08000000<br>1192 bytes</span></div></foreignObject></g></g><g class="node default default flowchart-label" id="flowchart-ED-9" data-node="true" data-id="ED" transform="translate(538.37109375, 485.5)"><rect class="basic label-container" style="" rx="0" ry="0" x="-81.90625" y="-25.5" width="163.8125" height="51"></rect><g class="label" style="" transform="translate(-74.40625, -18)"><rect></rect><foreignObject width="148.8125" height="36"><div xmlns="http://www.w3.org/1999/xhtml" style="display: inline-block; white-space: nowrap;"><span class="nodeLabel">.data @ 0x20000000<br>0 bytes today</span></div></foreignObject></g></g><g class="node default default flowchart-label" id="flowchart-EB-10" data-node="true" data-id="EB" transform="translate(327.68359375, 485.5)"><rect class="basic label-container" style="" rx="0" ry="0" x="-78.78125" y="-25.5" width="157.5625" height="51"></rect><g class="label" style="" transform="translate(-71.28125, -18)"><rect></rect><foreignObject width="142.5625" height="36"><div xmlns="http://www.w3.org/1999/xhtml" style="display: inline-block; white-space: nowrap;"><span class="nodeLabel">.bss @ 0x20000000<br>0 bytes today</span></div></foreignObject></g></g><g class="node default default flowchart-label" id="flowchart-MERGE-7" data-node="true" data-id="MERGE" transform="translate(538.4765625, 334.5)"><rect class="basic label-container" style="" rx="0" ry="0" x="-70.6484375" y="-25.5" width="141.296875" height="51"></rect><g class="label" style="" transform="translate(-63.1484375, -18)"><rect></rect><foreignObject width="126.296875" height="36"><div xmlns="http://www.w3.org/1999/xhtml" style="display: inline-block; white-space: nowrap;"><span class="nodeLabel">Assign addresses<br>&gt;rom / &gt;ram</span></div></foreignObject></g></g><g class="node default default flowchart-label" id="flowchart-OT-2" data-node="true" data-id="OT" transform="translate(328.0625, 192.5)"><rect class="basic label-container" style="" rx="0" ry="0" x="-84.875" y="-16.5" width="169.75" height="33"></rect><g class="label" style="" transform="translate(-77.375, -9)"><rect></rect><foreignObject width="154.75" height="18"><div xmlns="http://www.w3.org/1999/xhtml" style="display: inline-block; white-space: nowrap;"><span class="nodeLabel">.text — machine code</span></div></foreignObject></g></g><g class="node default default flowchart-label" id="flowchart-OV-3" data-node="true" data-id="OV" transform="translate(961.0703125, 192.5)"><rect class="basic label-container" style="" rx="0" ry="0" x="-91.5390625" y="-16.5" width="183.078125" height="33"></rect><g class="label" style="" transform="translate(-84.0390625, -9)"><rect></rect><foreignObject width="168.078125" height="18"><div xmlns="http://www.w3.org/1999/xhtml" style="display: inline-block; white-space: nowrap;"><span class="nodeLabel">.vectors — vector_table</span></div></foreignObject></g></g><g class="node default default flowchart-label" id="flowchart-OD-4" data-node="true" data-id="OD" transform="translate(538.4765625, 192.5)"><rect class="basic label-container" style="" rx="0" ry="0" x="-75.5390625" y="-16.5" width="151.078125" height="33"></rect><g class="label" style="" transform="translate(-68.0390625, -9)"><rect></rect><foreignObject width="136.078125" height="18"><div xmlns="http://www.w3.org/1999/xhtml" style="display: inline-block; white-space: nowrap;"><span class="nodeLabel">.data — init globals</span></div></foreignObject></g></g><g class="node default default flowchart-label" id="flowchart-OB-5" data-node="true" data-id="OB" transform="translate(741.7734375, 192.5)"><rect class="basic label-container" style="" rx="0" ry="0" x="-77.7578125" y="-16.5" width="155.515625" height="33"></rect><g class="label" style="" transform="translate(-70.2578125, -9)"><rect></rect><foreignObject width="140.515625" height="18"><div xmlns="http://www.w3.org/1999/xhtml" style="display: inline-block; white-space: nowrap;"><span class="nodeLabel">.bss — zero globals</span></div></foreignObject></g></g><g class="node default default flowchart-label" id="flowchart-OR-6" data-node="true" data-id="OR" transform="translate(114.09375, 192.5)"><rect class="basic label-container" style="" rx="0" ry="0" x="-79.09375" y="-16.5" width="158.1875" height="33"></rect><g class="label" style="" transform="translate(-71.59375, -9)"><rect></rect><foreignObject width="143.1875" height="18"><div xmlns="http://www.w3.org/1999/xhtml" style="display: inline-block; white-space: nowrap;"><span class="nodeLabel">.rodata — constants</span></div></foreignObject></g></g><g class="node default default flowchart-label" id="flowchart-FC-0" data-node="true" data-id="FC" transform="translate(133.7890625, 50.5)"><rect class="basic label-container" style="" rx="0" ry="0" x="-44.390625" y="-16.5" width="88.78125" height="33"></rect><g class="label" style="" transform="translate(-36.890625, -9)"><rect></rect><foreignObject width="73.78125" height="18"><div xmlns="http://www.w3.org/1999/xhtml" style="display: inline-block; white-space: nowrap;"><span class="nodeLabel">firmware.c</span></div></foreignObject></g></g><g class="node default default flowchart-label" id="flowchart-LIB-1" data-node="true" data-id="LIB" transform="translate(906.24609375, 50.5)"><rect class="basic label-container" style="" rx="0" ry="0" x="-94.6484375" y="-25.5" width="189.296875" height="51"></rect><g class="label" style="" transform="translate(-87.1484375, -18)"><rect></rect><foreignObject width="174.296875" height="36"><div xmlns="http://www.w3.org/1999/xhtml" style="display: inline-block; white-space: nowrap;"><span class="nodeLabel">libopencm3_stm32f4.a<br>(vector.o gpio.o rcc.o …)</span></div></foreignObject></g></g></g></g></g></svg>